<svg xmlns="http://www.w3.org/2000/svg" viewBox="98.95052473763118 489 1469.2653673163418 534" data-version="1" data-id="lg_g2BDmCmVClvDpb1Enm" xml:space="preserve" style="max-height: 500px" width="1469.2653673163418" height="534"><path d="M0 0h2000v1500H0z" stroke="transparent" fill="#363626"/><g data-padding="20"><g transform="translate(-1233.083 -935.42)scale(2.1878)"><rect transform="translate(563.53 400)" ry="0" rx="0" fill="none" y="316.132" x="317.636" height="108.48" width="471.936"/><path d="M894.894 800.532h-6.04v-67.22h6.04Zm53.21-16.5q0 3.42-1.29 6.42t-3.54 5.25-5.27 3.54q-3.03 1.29-6.45 1.29h-21.28v-67.22h21.28q3.42 0 6.45 1.29 3.02 1.29 5.27 3.54t3.54 5.27 1.29 6.45Zm-6.05 0v-34.17q0-2.25-.84-4.2-.85-1.95-2.32-3.42-1.48-1.48-3.43-2.32-1.94-.85-4.19-.85h-14.95v55.69h14.95q2.25 0 4.19-.84 1.95-.85 3.43-2.3 1.47-1.45 2.32-3.4.84-1.94.84-4.19m35.49-12.89h-17.96v-5.44h17.96Zm42.65 48.61h-5.76v-23.25q-1.97 2.34-4.74 3.65-2.76 1.31-6 1.31h-1.45q-2.91 0-5.49-1.1-2.57-1.1-4.5-3.02-1.92-1.92-3.02-4.5t-1.1-5.48v-21.66q0-2.91 1.1-5.49 1.1-2.57 3.02-4.5 1.93-1.92 4.5-3.02 2.58-1.1 5.49-1.1h1.45q3.52 0 6.47 1.57t4.92 4.24l3.19-4.87h1.92Zm-5.76-32.07v-22.31q0-1.73-.66-3.26-.66-1.52-1.78-2.65-1.13-1.12-2.65-1.78-1.52-.65-3.26-.65h-3.84q-1.74 0-3.26.65-1.52.66-2.65 1.78-1.12 1.13-1.78 2.65-.66 1.53-.66 3.26v22.31q0 1.74.66 3.26t1.78 2.65q1.13 1.12 2.65 1.78t3.26.66h3.84q1.74 0 3.26-.66t2.65-1.78q1.12-1.13 1.78-2.65t.66-3.26m49.37 12.85h-1.93l-3.18-4.88q-1.97 2.67-4.93 4.24-2.95 1.57-6.46 1.57h-1.46q-2.9 0-5.48-1.1t-4.5-3.02-3.03-4.5q-1.1-2.58-1.1-5.48v-34.83h5.77v35.15q0 1.74.65 3.26.66 1.52 1.79 2.65 1.12 1.12 2.64 1.78 1.53.66 3.26.66h3.85q1.73 0 3.25-.66 1.53-.66 2.65-1.78 1.13-1.13 1.78-2.65.66-1.52.66-3.26v-35.15h5.77Zm19.67-59.53h-6.7v-7.69h6.7Zm-.47 59.53h-5.76v-48h5.76Zm45.52-13.16q0 2.9-1.1 5.48t-3.03 4.5q-1.92 1.92-4.5 3.02-2.57 1.1-5.48 1.1h-3.84q-2.91 0-5.49-1.1t-4.5-3.02-3.02-4.5-1.1-5.48v-21.66q0-2.91 1.1-5.49 1.1-2.57 3.02-4.5 1.92-1.92 4.5-3.02t5.49-1.1h3.84q2.91 0 5.48 1.1 2.58 1.1 4.5 3.02 1.93 1.93 3.03 4.5 1.1 2.58 1.1 5.49v1.92l-5.77.94v-3.19q0-1.73-.65-3.26-.66-1.52-1.78-2.65-1.13-1.12-2.65-1.78-1.53-.65-3.26-.65h-3.84q-1.74 0-3.26.65-1.53.66-2.65 1.78-1.13 1.13-1.78 2.65-.66 1.53-.66 3.26v22.31q0 1.74.66 3.26.65 1.52 1.78 2.65 1.12 1.12 2.65 1.78 1.52.66 3.26.66h3.84q1.73 0 3.26-.66 1.52-.66 2.65-1.78 1.12-1.13 1.78-2.65.65-1.52.65-3.26v-3.18l5.77.93Zm47.44 13.16h-7.5l-19.6-24 19.6-24h7.5l-20.07 24Zm-28.22 0h-5.77v-67.22h5.77Z" fill="#ffa606"/><path d="M768.694 736.042h-70.8c-5.3 0-9.6 4.4-9.6 9.8v49c0 5.4 4.3 9.8 9.6 9.8h70.7c5.3 0 9.6-4.4 9.6-9.8v-49c.1-5.4-4.2-9.8-9.5-9.8m-53.1 13.1c5.4 0 9.7 4.4 9.7 9.9 0 5.4-4.3 9.9-9.7 9.9s-9.7-4.4-9.7-9.9 4.4-9.9 9.7-9.9m15.5 47.3h-31c-1.8 0-3.3-1.3-3.8-3 1.1-11.6 9.3-20.7 19.3-20.7s18.2 9 19.3 20.7c-.4 1.7-1.9 3-3.8 3m34.3-27.7h-28.9c-1.8 0-3.2-1.5-3.2-3.3s1.4-3.3 3.2-3.3h28.9c1.8 0 3.2 1.5 3.2 3.3.1 1.8-1.4 3.3-3.2 3.3m0-13.1h-28.9c-1.8 0-3.2-1.5-3.2-3.3s1.4-3.3 3.2-3.3h28.9c1.8 0 3.2 1.5 3.2 3.3.1 1.8-1.4 3.3-3.2 3.3" fill-rule="evenodd" fill="#ffa606"/><path d="M831.334 677.52v185.704" stroke-width="5" stroke="#ffa606" fill="#000000"/></g><path d="M250 540.226h1500v419.548H250z" stroke-width="2.256" stroke="transparent" fill="transparent"/></g></svg>